<?xml version="1.0" standalone="no"?><!DOCTYPE svg PUBLIC "-//W3C//DTD SVG 1.1//EN" "http://www.w3.org/Graphics/SVG/1.1/DTD/svg11.dtd"><svg t="1687439405877" class="icon" viewBox="0 0 1024 1024" version="1.1" xmlns="http://www.w3.org/2000/svg" p-id="2717" xmlns:xlink="http://www.w3.org/1999/xlink" width="280" height="280"><path d="M117.333333 800h789.333334a10.666667 10.666667 0 0 0 10.666666-10.666667V238.506667L519.232 605.173333a10.645333 10.645333 0 0 1-14.464 0L106.666667 238.506667V789.333333a10.666667 10.666667 0 0 0 10.666666 10.666667z" fill="#FFFFFF" p-id="2718"></path><path d="M901.589333 224H122.410667L512 582.826667z" fill="#FFFFFF" p-id="2719"></path><path d="M906.666667 202.666667H117.333333c-17.642667 0-32 14.357333-32 32v554.666666c0 17.642667 14.357333 32 32 32h789.333334c17.642667 0 32-14.357333 32-32V234.666667c0-17.642667-14.357333-32-32-32z m-5.077334 21.333333L512 582.826667 122.410667 224h779.178666zM906.666667 800H117.333333a10.666667 10.666667 0 0 1-10.666666-10.666667V238.506667l398.101333 366.666666a10.645333 10.645333 0 0 0 14.464 0L917.333333 238.506667V789.333333a10.666667 10.666667 0 0 1-10.666666 10.666667z" fill="#605E5C" opacity=".64" p-id="2720"></path></svg>